<svg width="491.3" height="265" xmlns="http://www.w3.org/2000/svg">
 <style type="text/css">.st0{fill:#3C3C3B;}
	.st1{fill:#F5F4E3;}
	.st2{fill:#E84A39;}
	.st3{fill:#81C6B2;}</style>

 <g>
  <title>background</title>
  <rect fill="none" id="canvas_background" height="402" width="582" y="-1" x="-1"/>
 </g>
 <g>
  <title>Layer 1</title>
  <g id="svg_1">
   <path id="svg_2" d="m368.3,254l-247.3,0c-63,0 -114,-51 -114,-114l0,-11.1c0,-63 51,-114 114,-114l247.3,0c63,0 114,51 114,114l0,11.1c0,63 -51,114 -114,114z" class="st0"/>
   <g id="svg_3">
    <g id="svg_4">
     <path id="svg_5" d="m290.3,225.2l-26.4,0c-2.8,0 -5,-2.2 -5,-5l0,-0.1c0,-2.8 2.2,-5 5,-5l26.4,0c2.8,0 5,2.2 5,5l0,0.1c0,2.8 -2.2,5 -5,5z" class="st1"/>
     <path id="svg_6" d="m350.4,225.2l-26.4,0c-2.8,0 -5,-2.2 -5,-5l0,-0.1c0,-2.8 2.2,-5 5,-5l26.4,0c2.8,0 5,2.2 5,5l0,0.1c0,2.8 -2.2,5 -5,5z" class="st1"/>
    </g>
   </g>
   <g id="svg_7">
    <circle id="svg_8" r="12.2" cy="81.2" cx="413.2" class="st1"/>
    <circle id="svg_9" r="12.2" cy="137.2" cx="413.2" class="st1"/>
    <circle id="svg_10" r="18.200001" cy="190.1" cx="413.2" class="st2"/>
    <circle id="svg_11" r="18.200001" cy="190.1" cx="76.2" class="st2"/>
    <circle id="svg_12" r="12.2" cy="109.2" cx="385.2" class="st1"/>
    <circle id="svg_13" r="12.2" cy="109.2" cx="441.2" class="st1"/>
   </g>
   <g id="svg_14">
    <path id="svg_15" d="m62.5,118.1l-18,0c-1.6,0 -2.9,-1.3 -2.9,-2.9l0,-11.3c0,-1.6 1.3,-2.9 2.9,-2.9l18.1,0c0.8,0 1.5,0.3 2,0.8l6,5.6c1.2,1.2 1.2,3.1 0,4.3l-6,5.6c-0.6,0.5 -1.3,0.8 -2.1,0.8z" class="st3"/>
    <path id="svg_16" d="m88.4,100.9l18.1,0c1.6,0 2.9,1.3 2.9,2.9l0,11.3c0,1.6 -1.3,2.9 -2.9,2.9l-18.1,0c-0.8,0 -1.5,-0.3 -2,-0.8l-6,-5.6c-1.2,-1.2 -1.2,-3.1 0,-4.3l6,-5.6c0.5,-0.5 1.2,-0.8 2,-0.8z" class="st3"/>
    <path id="svg_17" d="m84,122.4l0,18.1c0,1.6 -1.3,2.9 -2.9,2.9l-11.3,0c-1.6,0 -2.9,-1.3 -2.9,-2.9l0,-18.1c0,-0.8 0.3,-1.5 0.8,-2l5.6,-6c1.2,-1.2 3.1,-1.2 4.3,0l5.6,6c0.5,0.6 0.8,1.3 0.8,2z" class="st3"/>
    <path id="svg_18" d="m66.9,96.6l0,-18.1c0,-1.6 1.3,-2.9 2.9,-2.9l11.3,0c1.6,0 2.9,1.3 2.9,2.9l0,18.1c0,0.8 -0.3,1.5 -0.8,2l-5.6,6c-1.2,1.2 -3.1,1.2 -4.3,0l-5.6,-6c-0.5,-0.5 -0.8,-1.3 -0.8,-2z" class="st3"/>
   </g>
   <path id="svg_19" d="m348.5,196.4l-213.2,0c-3.9,0 -7.1,-3.2 -7.1,-7.1l0,-142.3c0,-3.9 3.2,-7.1 7.1,-7.1l213.2,0c3.9,0 7.1,3.2 7.1,7.1l0,142.3c0,3.9 -3.2,7.1 -7.1,7.1z" class="st1"/>
  </g>
  <rect id="svg_20" height="78" width="73" y="70" x="39.149994" stroke-width="1.5" stroke="#3c3c3b" fill="#3c3c3b"/>
  <rect stroke="#3c3c3b" id="svg_21" height="140.000004" width="82" y="69" x="372.149994" stroke-width="1.5" fill="#3c3c3b"/>
 </g>
</svg>