<svg width="1280" height="960.0000000000001" xmlns="http://www.w3.org/2000/svg">
 <!-- Created with Method Draw - http://github.com/duopixel/Method-Draw/ -->

 <g>
  <title>background</title>
  <rect fill="#fff" id="canvas_background" height="962" width="1282" y="-1" x="-1"/>
  <g display="none" overflow="visible" y="0" x="0" height="100%" width="100%" id="canvasGrid">
   <rect fill="url(#gridpattern)" stroke-width="0" y="2" x="2.884896" height="1200" width="1600"/>
  </g>
 </g>
 <g>
  <title>Layer 1</title>
  <style transform="matrix(0.07365189637269864,0,0,0.07365189637269864,0,0) " type="text/css">.st0{fill:#3C3C3B;}
	.st1{fill:#F5F4E3;}
	.st2{fill:#E84A39;}
	.st3{fill:#81C6B2;}</style>
  <g stroke="null" id="svg_24">
   <g stroke="null" transform="matrix(2.7005999164535637,0,0,2.9260561528400197,-8661.764313662521,-6813.6457177296) " id="svg_5">
    <path stroke="null" id="svg_6" d="m3568.648311,2610.530036l-247.3,0c-63,0 -114,-51 -114,-114l0,-11.1c0,-63 51,-114 114,-114l247.3,0c63,0 114,51 114,114l0,11.1c0,63 -51,114 -114,114z" class="st0"/>
    <g stroke="null" id="svg_7">
     <g stroke="null" id="svg_8">
      <path stroke="null" id="svg_9" d="m3490.648311,2581.730036l-26.4,0c-2.8,0 -5,-2.2 -5,-5l0,-0.1c0,-2.8 2.2,-5 5,-5l26.4,0c2.8,0 5,2.2 5,5l0,0.1c0,2.8 -2.2,5 -5,5z" class="st1"/>
      <path stroke="null" id="svg_10" d="m3550.748311,2581.730036l-26.4,0c-2.8,0 -5,-2.2 -5,-5l0,-0.1c0,-2.8 2.2,-5 5,-5l26.4,0c2.8,0 5,2.2 5,5l0,0.1c0,2.8 -2.2,5 -5,5z" class="st1"/>
     </g>
    </g>
    <g stroke="null" id="svg_11">
     <circle stroke="null" id="svg_12" r="12.2" cy="2437.730036" cx="3613.548311" class="st1"/>
     <circle stroke="null" id="svg_13" r="12.2" cy="2493.730036" cx="3613.548311" class="st1"/>
     <circle stroke="null" id="svg_14" r="18.200001" cy="2546.630036" cx="3613.548311" class="st2"/>
     <circle stroke="null" id="svg_15" r="18.200001" cy="2546.630036" cx="3276.548311" class="st2"/>
     <circle stroke="null" id="svg_16" r="12.2" cy="2465.730036" cx="3585.548311" class="st1"/>
     <circle stroke="null" id="svg_17" r="12.2" cy="2465.730036" cx="3641.548311" class="st1"/>
    </g>
    <g stroke="null" id="svg_18">
     <path stroke="null" id="svg_19" d="m3262.848311,2474.630036l-18,0c-1.6,0 -2.9,-1.3 -2.9,-2.9l0,-11.3c0,-1.6 1.3,-2.9 2.9,-2.9l18.1,0c0.8,0 1.5,0.3 2,0.8l6,5.6c1.2,1.2 1.2,3.1 0,4.3l-6,5.6c-0.6,0.5 -1.3,0.8 -2.1,0.8z" class="st3"/>
     <path stroke="null" id="svg_20" d="m3288.748311,2457.430036l18.1,0c1.6,0 2.9,1.3 2.9,2.9l0,11.3c0,1.6 -1.3,2.9 -2.9,2.9l-18.1,0c-0.8,0 -1.5,-0.3 -2,-0.8l-6,-5.6c-1.2,-1.2 -1.2,-3.1 0,-4.3l6,-5.6c0.5,-0.5 1.2,-0.8 2,-0.8z" class="st3"/>
     <path stroke="null" id="svg_21" d="m3284.348311,2478.930036l0,18.1c0,1.6 -1.3,2.9 -2.9,2.9l-11.3,0c-1.6,0 -2.9,-1.3 -2.9,-2.9l0,-18.1c0,-0.8 0.3,-1.5 0.8,-2l5.6,-6c1.2,-1.2 3.1,-1.2 4.3,0l5.6,6c0.5,0.6 0.8,1.3 0.8,2z" class="st3"/>
     <path stroke="null" id="svg_22" d="m3267.248311,2453.130036l0,-18.1c0,-1.6 1.3,-2.9 2.9,-2.9l11.3,0c1.6,0 2.9,1.3 2.9,2.9l0,18.1c0,0.8 -0.3,1.5 -0.8,2l-5.6,6c-1.2,1.2 -3.1,1.2 -4.3,0l-5.6,-6c-0.5,-0.5 -0.8,-1.3 -0.8,-2z" class="st3"/>
    </g>
    <path stroke="null" id="svg_23" d="m3548.848311,2552.930036l-213.2,0c-3.9,0 -7.1,-3.2 -7.1,-7.1l0,-142.3c0,-3.9 3.2,-7.1 7.1,-7.1l213.2,0c3.9,0 7.1,3.2 7.1,7.1l0,142.3c0,3.9 -3.2,7.1 -7.1,7.1z" class="st1"/>
   </g>
  </g>
  <rect stroke="null" id="svg_25" height="153.002412" width="203.717309" y="554.721834" x="995.040812" stroke-width="1.5" fill="#3c3c3b"/>
  <rect stroke="null" id="svg_26" height="218.288476" width="238.288964" y="294.289928" x="59.599797" stroke-width="1.5" fill="#3c3c3f"/>
  <rect stroke="null" id="svg_27" height="304.434631" width="235.146644" y="257.571818" x="975.040339" stroke-width="1.5" fill="#3c3c3b"/>
 </g>
</svg>