<?xml version="1.0" encoding="utf-8"?>
<!-- Generator: Adobe Illustrator 20.1.0, SVG Export Plug-In . SVG Version: 6.00 Build 0)  -->
<svg version="1.1" id="Camada_1" xmlns="http://www.w3.org/2000/svg" xmlns:xlink="http://www.w3.org/1999/xlink" x="0px" y="0px"
	 viewBox="0 0 491.3 265" style="enable-background:new 0 0 491.3 265;" xml:space="preserve">
<style type="text/css">
	.st0{fill:#3C3C3B;}
	.st1{fill:#F5F4E3;}
	.st2{fill:#E84A39;}
	.st3{fill:#81C6B2;}
</style>
<g>
	<path class="st0" d="M361.3,250H114C51,250,0,199,0,136v-11.1c0-63,51-114,114-114h247.3c63,0,114,51,114,114V136
		C475.3,199,424.3,250,361.3,250z"/>
	<g>
		<g>
			<path class="st1" d="M283.3,221.2h-26.4c-2.8,0-5-2.2-5-5v-0.1c0-2.8,2.2-5,5-5h26.4c2.8,0,5,2.2,5,5v0.1
				C288.3,219,286.1,221.2,283.3,221.2z"/>
			<path class="st1" d="M343.4,221.2H317c-2.8,0-5-2.2-5-5v-0.1c0-2.8,2.2-5,5-5h26.4c2.8,0,5,2.2,5,5v0.1
				C348.4,219,346.2,221.2,343.4,221.2z"/>
		</g>
	</g>
	<g>
		<circle class="st1" cx="406.2" cy="77.2" r="12.2"/>
		<circle class="st1" cx="406.2" cy="133.2" r="12.2"/>
		<circle class="st2" cx="406.2" cy="186.1" r="18.2"/>
		<circle class="st2" cx="69.2" cy="186.1" r="18.2"/>
		<circle class="st1" cx="378.2" cy="105.2" r="12.2"/>
		<circle class="st1" cx="434.2" cy="105.2" r="12.2"/>
	</g>
	<g>
		<path class="st3" d="M55.5,114.1H37.5c-1.6,0-2.9-1.3-2.9-2.9V99.9c0-1.6,1.3-2.9,2.9-2.9h18.1c0.8,0,1.5,0.3,2,0.8l6,5.6
			c1.2,1.2,1.2,3.1,0,4.3l-6,5.6C57,113.8,56.3,114.1,55.5,114.1z"/>
		<path class="st3" d="M81.4,96.9h18.1c1.6,0,2.9,1.3,2.9,2.9v11.3c0,1.6-1.3,2.9-2.9,2.9H81.4c-0.8,0-1.5-0.3-2-0.8l-6-5.6
			c-1.2-1.2-1.2-3.1,0-4.3l6-5.6C79.9,97.2,80.6,96.9,81.4,96.9z"/>
		<path class="st3" d="M77,118.4v18.1c0,1.6-1.3,2.9-2.9,2.9H62.8c-1.6,0-2.9-1.3-2.9-2.9v-18.1c0-0.8,0.3-1.5,0.8-2l5.6-6
			c1.2-1.2,3.1-1.2,4.3,0l5.6,6C76.7,117,77,117.7,77,118.4z"/>
		<path class="st3" d="M59.9,92.6l0-18.1c0-1.6,1.3-2.9,2.9-2.9h11.3c1.6,0,2.9,1.3,2.9,2.9v18.1c0,0.8-0.3,1.5-0.8,2l-5.6,6
			c-1.2,1.2-3.1,1.2-4.3,0l-5.6-6C60.2,94.1,59.9,93.3,59.9,92.6z"/>
	</g>
	<path class="st1" d="M341.5,192.4H128.3c-3.9,0-7.1-3.2-7.1-7.1V43c0-3.9,3.2-7.1,7.1-7.1h213.2c3.9,0,7.1,3.2,7.1,7.1v142.3
		C348.6,189.2,345.4,192.4,341.5,192.4z"/>
</g>
</svg>
